<svg xmlns="http://www.w3.org/2000/svg" xmlns:xlink="http://www.w3.org/1999/xlink" width="50" zoomAndPan="magnify" viewBox="0 0 37.5 37.499999" height="50" preserveAspectRatio="xMidYMid meet" version="1.0"><defs><clipPath id="21eaa205f7"><path d="M 0 0 L 37 0 L 37 37.007812 L 0 37.007812 Z M 0 0 " clip-rule="nonzero"/></clipPath><clipPath id="718a21dd4a"><path d="M 30.710938 20.644531 C 31.117188 20.648438 31.519531 20.609375 31.914062 20.535156 C 32.3125 20.457031 32.699219 20.34375 33.074219 20.191406 C 33.449219 20.039062 33.804688 19.851562 34.144531 19.628906 C 34.480469 19.410156 34.792969 19.15625 35.082031 18.875 C 35.371094 18.589844 35.628906 18.28125 35.855469 17.949219 C 36.082031 17.613281 36.273438 17.261719 36.429688 16.890625 C 36.585938 16.519531 36.707031 16.136719 36.785156 15.742188 C 36.867188 15.347656 36.910156 14.949219 36.910156 14.546875 C 36.914062 14.144531 36.875 13.746094 36.800781 13.347656 C 36.722656 12.953125 36.609375 12.570312 36.457031 12.195312 C 36.300781 11.824219 36.113281 11.46875 35.890625 11.132812 C 35.667969 10.796875 35.414062 10.484375 35.128906 10.199219 C 34.84375 9.914062 34.535156 9.65625 34.199219 9.433594 C 33.863281 9.207031 33.511719 9.015625 33.136719 8.859375 C 32.765625 8.703125 32.378906 8.585938 31.980469 8.503906 C 31.585938 8.421875 31.183594 8.382812 30.78125 8.378906 C 30.691406 8 30.542969 7.644531 30.332031 7.3125 C 30.125 6.984375 29.867188 6.695312 29.558594 6.453125 C 29.25 6.210938 28.914062 6.023438 28.542969 5.894531 C 28.171875 5.765625 27.789062 5.699219 27.398438 5.699219 C 27.246094 5.699219 27.097656 5.710938 26.945312 5.730469 C 26.585938 5.289062 26.164062 4.914062 25.683594 4.605469 C 25.203125 4.296875 24.6875 4.070312 24.132812 3.921875 C 23.582031 3.777344 23.019531 3.71875 22.449219 3.746094 C 21.878906 3.777344 21.324219 3.890625 20.789062 4.09375 C 20.273438 3.398438 19.664062 2.796875 18.960938 2.289062 C 18.257812 1.777344 17.496094 1.382812 16.671875 1.105469 C 15.847656 0.828125 15.003906 0.679688 14.132812 0.660156 C 13.265625 0.636719 12.410156 0.746094 11.574219 0.984375 C 10.738281 1.222656 9.957031 1.578125 9.234375 2.054688 C 8.507812 2.53125 7.867188 3.101562 7.316406 3.773438 C 6.765625 4.441406 6.328125 5.175781 6.003906 5.980469 C 5.679688 6.78125 5.484375 7.613281 5.414062 8.476562 C 5.039062 8.542969 4.671875 8.644531 4.316406 8.777344 C 3.957031 8.914062 3.617188 9.082031 3.289062 9.277344 C 2.964844 9.476562 2.660156 9.703125 2.375 9.957031 C 2.09375 10.210938 1.835938 10.488281 1.605469 10.789062 C 1.371094 11.09375 1.171875 11.414062 1 11.75 C 0.828125 12.089844 0.6875 12.441406 0.582031 12.808594 C 0.476562 13.171875 0.402344 13.542969 0.367188 13.921875 C 0.332031 14.300781 0.328125 14.675781 0.363281 15.054688 C 0.394531 15.433594 0.464844 15.804688 0.566406 16.171875 C 0.671875 16.535156 0.808594 16.890625 0.976562 17.230469 C 1.144531 17.570312 1.34375 17.890625 1.574219 18.195312 C 1.804688 18.5 2.058594 18.78125 2.339844 19.035156 C 2.621094 19.292969 2.925781 19.519531 3.25 19.722656 C 3.574219 19.921875 3.914062 20.089844 4.269531 20.226562 C 4.625 20.367188 4.988281 20.46875 5.363281 20.539062 C 5.738281 20.609375 6.117188 20.644531 6.5 20.644531 L 7.828125 20.644531 L 7.828125 24.980469 C 7.828125 25.378906 7.757812 25.761719 7.621094 26.132812 C 7.488281 26.507812 7.292969 26.847656 7.035156 27.152344 C 6.78125 27.457031 6.480469 27.707031 6.136719 27.910156 C 5.792969 28.109375 5.425781 28.246094 5.035156 28.320312 C 4.96875 28.140625 4.882812 27.976562 4.777344 27.816406 C 4.671875 27.660156 4.550781 27.519531 4.410156 27.390625 C 4.269531 27.261719 4.117188 27.152344 3.953125 27.058594 C 3.785156 26.964844 3.613281 26.894531 3.429688 26.839844 C 3.246094 26.789062 3.0625 26.757812 2.871094 26.75 C 2.679688 26.742188 2.492188 26.753906 2.304688 26.792969 C 2.121094 26.828125 1.941406 26.882812 1.765625 26.960938 C 1.59375 27.039062 1.433594 27.136719 1.28125 27.25 C 1.132812 27.367188 0.996094 27.5 0.878906 27.644531 C 0.757812 27.792969 0.65625 27.953125 0.578125 28.121094 C 0.496094 28.292969 0.433594 28.472656 0.394531 28.65625 C 0.355469 28.839844 0.335938 29.027344 0.34375 29.214844 C 0.347656 29.40625 0.375 29.589844 0.421875 29.773438 C 0.472656 29.957031 0.539062 30.132812 0.628906 30.296875 C 0.71875 30.464844 0.828125 30.617188 0.953125 30.757812 C 1.082031 30.898438 1.222656 31.023438 1.378906 31.132812 C 1.535156 31.242188 1.699219 31.328125 1.878906 31.398438 C 2.054688 31.46875 2.238281 31.515625 2.425781 31.542969 C 2.613281 31.570312 2.800781 31.574219 2.992188 31.554688 C 3.179688 31.539062 3.363281 31.5 3.542969 31.4375 C 3.722656 31.375 3.894531 31.296875 4.054688 31.195312 C 4.214844 31.09375 4.363281 30.976562 4.496094 30.839844 C 4.628906 30.707031 4.742188 30.558594 4.839844 30.394531 C 4.9375 30.234375 5.015625 30.0625 5.074219 29.882812 C 5.667969 29.800781 6.234375 29.617188 6.761719 29.335938 C 7.292969 29.050781 7.753906 28.683594 8.152344 28.234375 C 8.546875 27.785156 8.851562 27.277344 9.0625 26.71875 C 9.273438 26.15625 9.382812 25.578125 9.382812 24.980469 L 9.382812 20.644531 L 14.691406 20.644531 L 14.691406 32.308594 C 14.511719 32.367188 14.339844 32.449219 14.179688 32.550781 C 14.019531 32.652344 13.871094 32.769531 13.738281 32.90625 C 13.605469 33.039062 13.488281 33.191406 13.390625 33.351562 C 13.292969 33.515625 13.214844 33.6875 13.15625 33.867188 C 13.097656 34.046875 13.0625 34.234375 13.050781 34.421875 C 13.035156 34.613281 13.042969 34.800781 13.074219 34.988281 C 13.105469 35.175781 13.160156 35.355469 13.234375 35.53125 C 13.304688 35.707031 13.398438 35.871094 13.511719 36.023438 C 13.625 36.175781 13.753906 36.3125 13.898438 36.4375 C 14.046875 36.558594 14.203125 36.664062 14.371094 36.75 C 14.542969 36.835938 14.722656 36.902344 14.90625 36.945312 C 15.09375 36.988281 15.28125 37.011719 15.472656 37.011719 C 15.660156 37.011719 15.851562 36.988281 16.035156 36.945312 C 16.222656 36.902344 16.398438 36.835938 16.570312 36.75 C 16.738281 36.664062 16.898438 36.558594 17.042969 36.4375 C 17.1875 36.3125 17.316406 36.175781 17.429688 36.023438 C 17.542969 35.871094 17.636719 35.707031 17.710938 35.53125 C 17.78125 35.355469 17.835938 35.175781 17.867188 34.988281 C 17.898438 34.800781 17.90625 34.613281 17.890625 34.421875 C 17.878906 34.234375 17.84375 34.046875 17.785156 33.867188 C 17.726562 33.6875 17.648438 33.515625 17.550781 33.351562 C 17.453125 33.191406 17.339844 33.039062 17.203125 32.90625 C 17.070312 32.769531 16.921875 32.652344 16.761719 32.550781 C 16.601562 32.449219 16.429688 32.367188 16.25 32.308594 L 16.25 20.644531 L 21.5625 20.644531 L 21.5625 29.761719 C 21.378906 29.820312 21.210938 29.902344 21.046875 30.003906 C 20.886719 30.101562 20.738281 30.222656 20.605469 30.355469 C 20.472656 30.492188 20.355469 30.640625 20.257812 30.804688 C 20.160156 30.964844 20.082031 31.136719 20.023438 31.320312 C 19.96875 31.5 19.933594 31.683594 19.917969 31.875 C 19.90625 32.0625 19.914062 32.25 19.945312 32.4375 C 19.976562 32.625 20.027344 32.804688 20.101562 32.980469 C 20.175781 33.15625 20.269531 33.320312 20.382812 33.472656 C 20.492188 33.625 20.625 33.761719 20.769531 33.886719 C 20.914062 34.007812 21.070312 34.113281 21.242188 34.199219 C 21.410156 34.285156 21.589844 34.347656 21.773438 34.390625 C 21.960938 34.4375 22.148438 34.457031 22.339844 34.457031 C 22.527344 34.457031 22.714844 34.4375 22.902344 34.390625 C 23.085938 34.347656 23.265625 34.285156 23.433594 34.199219 C 23.605469 34.113281 23.761719 34.007812 23.90625 33.886719 C 24.054688 33.761719 24.183594 33.625 24.296875 33.472656 C 24.40625 33.320312 24.5 33.15625 24.574219 32.980469 C 24.648438 32.804688 24.699219 32.625 24.730469 32.4375 C 24.761719 32.25 24.773438 32.0625 24.757812 31.875 C 24.746094 31.683594 24.707031 31.5 24.652344 31.320312 C 24.59375 31.136719 24.515625 30.964844 24.417969 30.804688 C 24.320312 30.640625 24.203125 30.492188 24.070312 30.355469 C 23.9375 30.222656 23.789062 30.101562 23.628906 30.003906 C 23.46875 29.902344 23.296875 29.820312 23.117188 29.761719 L 23.117188 20.644531 L 27.9375 20.644531 L 27.9375 24.125 C 27.9375 24.710938 28.039062 25.277344 28.246094 25.824219 C 28.453125 26.371094 28.75 26.867188 29.136719 27.304688 C 29.523438 27.746094 29.976562 28.105469 30.492188 28.382812 C 31.007812 28.664062 31.558594 28.84375 32.140625 28.921875 C 32.199219 29.105469 32.273438 29.277344 32.375 29.4375 C 32.472656 29.601562 32.585938 29.75 32.71875 29.886719 C 32.851562 30.023438 33 30.140625 33.160156 30.242188 C 33.324219 30.34375 33.492188 30.425781 33.671875 30.488281 C 33.855469 30.546875 34.039062 30.585938 34.230469 30.605469 C 34.417969 30.625 34.609375 30.617188 34.796875 30.59375 C 34.984375 30.566406 35.167969 30.519531 35.347656 30.449219 C 35.523438 30.378906 35.691406 30.289062 35.847656 30.183594 C 36.003906 30.074219 36.144531 29.949219 36.273438 29.808594 C 36.398438 29.664062 36.507812 29.511719 36.597656 29.34375 C 36.6875 29.175781 36.757812 29.003906 36.808594 28.820312 C 36.855469 28.636719 36.882812 28.449219 36.886719 28.257812 C 36.894531 28.070312 36.875 27.882812 36.835938 27.695312 C 36.796875 27.511719 36.734375 27.332031 36.652344 27.160156 C 36.570312 26.988281 36.46875 26.832031 36.351562 26.683594 C 36.230469 26.535156 36.097656 26.402344 35.945312 26.285156 C 35.792969 26.171875 35.632812 26.074219 35.457031 25.996094 C 35.285156 25.917969 35.101562 25.859375 34.917969 25.824219 C 34.730469 25.789062 34.539062 25.777344 34.347656 25.785156 C 34.160156 25.792969 33.972656 25.824219 33.789062 25.875 C 33.605469 25.929688 33.429688 26 33.265625 26.09375 C 33.097656 26.1875 32.945312 26.300781 32.804688 26.429688 C 32.664062 26.558594 32.542969 26.699219 32.4375 26.859375 C 32.332031 27.015625 32.246094 27.183594 32.179688 27.363281 C 31.800781 27.289062 31.445312 27.15625 31.113281 26.960938 C 30.78125 26.761719 30.496094 26.515625 30.25 26.222656 C 30.003906 25.925781 29.816406 25.597656 29.6875 25.234375 C 29.554688 24.875 29.492188 24.5 29.492188 24.117188 L 29.492188 20.636719 Z M 2.761719 30.019531 C 2.519531 30.015625 2.316406 29.929688 2.148438 29.761719 C 1.980469 29.589844 1.894531 29.386719 1.898438 29.148438 C 1.898438 28.910156 1.984375 28.707031 2.15625 28.539062 C 2.324219 28.371094 2.53125 28.285156 2.769531 28.285156 C 3.011719 28.289062 3.214844 28.371094 3.386719 28.542969 C 3.554688 28.710938 3.640625 28.914062 3.640625 29.152344 C 3.636719 29.394531 3.550781 29.597656 3.378906 29.765625 C 3.207031 29.9375 3.003906 30.019531 2.761719 30.019531 Z M 15.472656 35.460938 C 15.230469 35.460938 15.027344 35.375 14.855469 35.203125 C 14.6875 35.035156 14.601562 34.832031 14.601562 34.59375 C 14.601562 34.351562 14.6875 34.148438 14.859375 33.980469 C 15.027344 33.8125 15.234375 33.726562 15.472656 33.726562 C 15.714844 33.726562 15.917969 33.8125 16.089844 33.980469 C 16.257812 34.152344 16.34375 34.355469 16.34375 34.59375 C 16.34375 34.832031 16.257812 35.039062 16.085938 35.207031 C 15.917969 35.375 15.710938 35.460938 15.472656 35.460938 Z M 22.339844 32.910156 C 22.097656 32.910156 21.890625 32.828125 21.71875 32.660156 C 21.550781 32.488281 21.464844 32.285156 21.464844 32.042969 C 21.464844 31.804688 21.546875 31.601562 21.71875 31.429688 C 21.890625 31.261719 22.09375 31.175781 22.335938 31.175781 C 22.578125 31.175781 22.78125 31.257812 22.953125 31.429688 C 23.125 31.597656 23.210938 31.804688 23.210938 32.042969 C 23.207031 32.28125 23.125 32.488281 22.953125 32.65625 C 22.785156 32.824219 22.578125 32.910156 22.339844 32.910156 Z M 34.453125 27.320312 C 34.691406 27.320312 34.898438 27.40625 35.066406 27.574219 C 35.238281 27.746094 35.324219 27.949219 35.324219 28.1875 C 35.324219 28.425781 35.238281 28.632812 35.066406 28.800781 C 34.898438 28.96875 34.691406 29.054688 34.453125 29.054688 C 34.210938 29.054688 34.007812 28.96875 33.835938 28.800781 C 33.667969 28.632812 33.582031 28.425781 33.582031 28.1875 C 33.582031 27.949219 33.667969 27.746094 33.835938 27.574219 C 34.007812 27.40625 34.210938 27.324219 34.453125 27.320312 Z M 1.890625 14.511719 C 1.890625 13.929688 1.996094 13.367188 2.214844 12.824219 C 2.429688 12.28125 2.738281 11.800781 3.140625 11.375 C 3.542969 10.949219 4.007812 10.613281 4.539062 10.363281 C 5.066406 10.117188 5.625 9.976562 6.210938 9.9375 L 6.945312 9.882812 L 6.945312 9.152344 C 6.941406 8.398438 7.0625 7.664062 7.304688 6.945312 C 7.546875 6.230469 7.894531 5.570312 8.351562 4.96875 C 8.808594 4.367188 9.351562 3.851562 9.976562 3.421875 C 10.601562 2.996094 11.277344 2.679688 12.007812 2.472656 C 12.738281 2.261719 13.484375 2.175781 14.242188 2.210938 C 15 2.242188 15.734375 2.394531 16.441406 2.667969 C 17.148438 2.9375 17.796875 3.316406 18.378906 3.796875 C 18.964844 4.277344 19.457031 4.839844 19.859375 5.480469 L 20.25 6.097656 L 20.890625 5.75 C 21.46875 5.4375 22.082031 5.285156 22.738281 5.285156 C 23.386719 5.285156 24 5.4375 24.574219 5.746094 C 25.148438 6.050781 25.613281 6.476562 25.976562 7.015625 L 26.292969 7.492188 L 26.847656 7.328125 C 26.988281 7.285156 27.136719 7.257812 27.285156 7.25 C 27.433594 7.242188 27.582031 7.25 27.730469 7.273438 C 27.875 7.300781 28.019531 7.34375 28.15625 7.402344 C 28.292969 7.460938 28.421875 7.535156 28.542969 7.621094 C 28.664062 7.710938 28.769531 7.8125 28.867188 7.925781 C 28.964844 8.039062 29.046875 8.164062 29.113281 8.296875 C 29.179688 8.429688 29.230469 8.566406 29.265625 8.710938 C 29.300781 8.859375 29.316406 9.003906 29.316406 9.152344 L 29.316406 9.925781 L 30.714844 9.925781 C 31.019531 9.925781 31.320312 9.957031 31.617188 10.015625 C 31.914062 10.074219 32.199219 10.160156 32.480469 10.277344 C 32.761719 10.390625 33.027344 10.53125 33.277344 10.699219 C 33.527344 10.867188 33.761719 11.058594 33.976562 11.269531 C 34.191406 11.484375 34.382812 11.714844 34.550781 11.964844 C 34.71875 12.214844 34.859375 12.480469 34.976562 12.757812 C 35.089844 13.035156 35.179688 13.324219 35.238281 13.617188 C 35.296875 13.914062 35.328125 14.210938 35.328125 14.511719 C 35.328125 14.8125 35.296875 15.113281 35.238281 15.40625 C 35.179688 15.703125 35.089844 15.988281 34.976562 16.269531 C 34.859375 16.546875 34.71875 16.808594 34.550781 17.0625 C 34.382812 17.3125 34.191406 17.542969 33.976562 17.753906 C 33.761719 17.96875 33.527344 18.160156 33.277344 18.324219 C 33.027344 18.492188 32.761719 18.632812 32.480469 18.75 C 32.199219 18.863281 31.914062 18.953125 31.617188 19.011719 C 31.320312 19.070312 31.019531 19.097656 30.714844 19.097656 L 6.5 19.097656 C 6.199219 19.097656 5.898438 19.070312 5.601562 19.007812 C 5.304688 18.949219 5.015625 18.863281 4.738281 18.75 C 4.457031 18.632812 4.191406 18.492188 3.941406 18.324219 C 3.6875 18.15625 3.457031 17.964844 3.242188 17.753906 C 3.027344 17.539062 2.835938 17.308594 2.667969 17.058594 C 2.5 16.808594 2.359375 16.542969 2.242188 16.265625 C 2.125 15.988281 2.039062 15.703125 1.980469 15.40625 C 1.917969 15.113281 1.890625 14.8125 1.890625 14.511719 Z M 1.890625 14.511719 " clip-rule="nonzero"/></clipPath><linearGradient x1="-0.029576" gradientTransform="matrix(0.194379, 0, 0, 0.193347, 0.334479, 0.65738)" y1="94" x2="188.186493" gradientUnits="userSpaceOnUse" y2="94" id="68efea4676"><stop stop-opacity="1" stop-color="rgb(61.199951%, 19.198608%, 100%)" offset="0"/><stop stop-opacity="1" stop-color="rgb(60.987854%, 19.381714%, 99.934387%)" offset="0.00390625"/><stop stop-opacity="1" stop-color="rgb(60.775757%, 19.566345%, 99.8703%)" offset="0.0078125"/><stop stop-opacity="1" stop-color="rgb(60.559082%, 19.754028%, 99.804688%)" offset="0.0117188"/><stop stop-opacity="1" stop-color="rgb(60.342407%, 19.941711%, 99.740601%)" offset="0.015625"/><stop stop-opacity="1" stop-color="rgb(60.125732%, 20.129395%, 99.674988%)" offset="0.0195312"/><stop stop-opacity="1" stop-color="rgb(59.910583%, 20.317078%, 99.609375%)" offset="0.0234375"/><stop stop-opacity="1" stop-color="rgb(59.693909%, 20.504761%, 99.543762%)" offset="0.0273438"/><stop stop-opacity="1" stop-color="rgb(59.477234%, 20.692444%, 99.478149%)" offset="0.03125"/><stop stop-opacity="1" stop-color="rgb(59.260559%, 20.880127%, 99.412537%)" offset="0.0351562"/><stop stop-opacity="1" stop-color="rgb(59.04541%, 21.06781%, 99.346924%)" offset="0.0390625"/><stop stop-opacity="1" stop-color="rgb(58.828735%, 21.253967%, 99.281311%)" offset="0.0429688"/><stop stop-opacity="1" stop-color="rgb(58.612061%, 21.44165%, 99.217224%)" offset="0.046875"/><stop stop-opacity="1" stop-color="rgb(58.395386%, 21.629333%, 99.151611%)" offset="0.0507812"/><stop stop-opacity="1" stop-color="rgb(58.180237%, 21.817017%, 99.085999%)" offset="0.0546875"/><stop stop-opacity="1" stop-color="rgb(57.963562%, 22.0047%, 99.020386%)" offset="0.0585938"/><stop stop-opacity="1" stop-color="rgb(57.746887%, 22.192383%, 98.954773%)" offset="0.0625"/><stop stop-opacity="1" stop-color="rgb(57.530212%, 22.380066%, 98.88916%)" offset="0.0664063"/><stop stop-opacity="1" stop-color="rgb(57.315063%, 22.567749%, 98.823547%)" offset="0.0703125"/><stop stop-opacity="1" stop-color="rgb(57.098389%, 22.755432%, 98.757935%)" offset="0.0742188"/><stop stop-opacity="1" stop-color="rgb(56.881714%, 22.943115%, 98.692322%)" offset="0.078125"/><stop stop-opacity="1" stop-color="rgb(56.665039%, 23.130798%, 98.626709%)" offset="0.0820313"/><stop stop-opacity="1" stop-color="rgb(56.44989%, 23.318481%, 98.562622%)" offset="0.0859375"/><stop stop-opacity="1" stop-color="rgb(56.233215%, 23.504639%, 98.497009%)" offset="0.0898438"/><stop stop-opacity="1" stop-color="rgb(56.016541%, 23.692322%, 98.431396%)" offset="0.09375"/><stop stop-opacity="1" stop-color="rgb(55.799866%, 23.880005%, 98.365784%)" offset="0.0976563"/><stop stop-opacity="1" stop-color="rgb(55.584717%, 24.067688%, 98.300171%)" offset="0.101563"/><stop stop-opacity="1" stop-color="rgb(55.368042%, 24.255371%, 98.234558%)" offset="0.105469"/><stop stop-opacity="1" stop-color="rgb(55.151367%, 24.443054%, 98.168945%)" offset="0.109375"/><stop stop-opacity="1" stop-color="rgb(54.934692%, 24.630737%, 98.103333%)" offset="0.113281"/><stop stop-opacity="1" stop-color="rgb(54.719543%, 24.81842%, 98.039246%)" offset="0.117188"/><stop stop-opacity="1" stop-color="rgb(54.502869%, 25.006104%, 97.973633%)" offset="0.121094"/><stop stop-opacity="1" stop-color="rgb(54.286194%, 25.193787%, 97.90802%)" offset="0.125"/><stop stop-opacity="1" stop-color="rgb(54.069519%, 25.38147%, 97.842407%)" offset="0.128906"/><stop stop-opacity="1" stop-color="rgb(53.85437%, 25.569153%, 97.776794%)" offset="0.132813"/><stop stop-opacity="1" stop-color="rgb(53.637695%, 25.75531%, 97.711182%)" offset="0.136719"/><stop stop-opacity="1" stop-color="rgb(53.421021%, 25.942993%, 97.645569%)" offset="0.140625"/><stop stop-opacity="1" stop-color="rgb(53.204346%, 26.130676%, 97.579956%)" offset="0.144531"/><stop stop-opacity="1" stop-color="rgb(52.989197%, 26.318359%, 97.514343%)" offset="0.148438"/><stop stop-opacity="1" stop-color="rgb(52.772522%, 26.506042%, 97.44873%)" offset="0.152344"/><stop stop-opacity="1" stop-color="rgb(52.555847%, 26.693726%, 97.384644%)" offset="0.15625"/><stop stop-opacity="1" stop-color="rgb(52.339172%, 26.881409%, 97.319031%)" offset="0.160156"/><stop stop-opacity="1" stop-color="rgb(52.124023%, 27.069092%, 97.253418%)" offset="0.164062"/><stop stop-opacity="1" stop-color="rgb(51.907349%, 27.256775%, 97.187805%)" offset="0.167969"/><stop stop-opacity="1" stop-color="rgb(51.690674%, 27.444458%, 97.122192%)" offset="0.171875"/><stop stop-opacity="1" stop-color="rgb(51.473999%, 27.632141%, 97.05658%)" offset="0.175781"/><stop stop-opacity="1" stop-color="rgb(51.25885%, 27.819824%, 96.990967%)" offset="0.179688"/><stop stop-opacity="1" stop-color="rgb(51.042175%, 28.005981%, 96.925354%)" offset="0.183594"/><stop stop-opacity="1" stop-color="rgb(50.8255%, 28.193665%, 96.861267%)" offset="0.1875"/><stop stop-opacity="1" stop-color="rgb(50.608826%, 28.381348%, 96.795654%)" offset="0.191406"/><stop stop-opacity="1" stop-color="rgb(50.393677%, 28.569031%, 96.730042%)" offset="0.195313"/><stop stop-opacity="1" stop-color="rgb(50.177002%, 28.756714%, 96.664429%)" offset="0.199219"/><stop stop-opacity="1" stop-color="rgb(49.960327%, 28.944397%, 96.598816%)" offset="0.203125"/><stop stop-opacity="1" stop-color="rgb(49.743652%, 29.13208%, 96.533203%)" offset="0.207031"/><stop stop-opacity="1" stop-color="rgb(49.528503%, 29.319763%, 96.46759%)" offset="0.210938"/><stop stop-opacity="1" stop-color="rgb(49.311829%, 29.507446%, 96.401978%)" offset="0.214844"/><stop stop-opacity="1" stop-color="rgb(49.095154%, 29.695129%, 96.336365%)" offset="0.21875"/><stop stop-opacity="1" stop-color="rgb(48.878479%, 29.882812%, 96.270752%)" offset="0.222656"/><stop stop-opacity="1" stop-color="rgb(48.66333%, 30.070496%, 96.206665%)" offset="0.226563"/><stop stop-opacity="1" stop-color="rgb(48.446655%, 30.256653%, 96.141052%)" offset="0.230469"/><stop stop-opacity="1" stop-color="rgb(48.22998%, 30.444336%, 96.075439%)" offset="0.234375"/><stop stop-opacity="1" stop-color="rgb(48.013306%, 30.632019%, 96.009827%)" offset="0.238281"/><stop stop-opacity="1" stop-color="rgb(47.798157%, 30.819702%, 95.944214%)" offset="0.242188"/><stop stop-opacity="1" stop-color="rgb(47.581482%, 31.007385%, 95.878601%)" offset="0.246094"/><stop stop-opacity="1" stop-color="rgb(47.364807%, 31.195068%, 95.812988%)" offset="0.25"/><stop stop-opacity="1" stop-color="rgb(47.148132%, 31.382751%, 95.747375%)" offset="0.253906"/><stop stop-opacity="1" stop-color="rgb(46.932983%, 31.570435%, 95.681763%)" offset="0.257812"/><stop stop-opacity="1" stop-color="rgb(46.716309%, 31.758118%, 95.61615%)" offset="0.261719"/><stop stop-opacity="1" stop-color="rgb(46.499634%, 31.945801%, 95.552063%)" offset="0.265625"/><stop stop-opacity="1" stop-color="rgb(46.282959%, 32.133484%, 95.48645%)" offset="0.269531"/><stop stop-opacity="1" stop-color="rgb(46.06781%, 32.321167%, 95.420837%)" offset="0.273438"/><stop stop-opacity="1" stop-color="rgb(45.851135%, 32.507324%, 95.355225%)" offset="0.277344"/><stop stop-opacity="1" stop-color="rgb(45.63446%, 32.695007%, 95.289612%)" offset="0.28125"/><stop stop-opacity="1" stop-color="rgb(45.417786%, 32.88269%, 95.223999%)" offset="0.285156"/><stop stop-opacity="1" stop-color="rgb(45.202637%, 33.070374%, 95.158386%)" offset="0.289062"/><stop stop-opacity="1" stop-color="rgb(44.985962%, 33.258057%, 95.092773%)" offset="0.292969"/><stop stop-opacity="1" stop-color="rgb(44.770813%, 33.44574%, 95.028687%)" offset="0.296875"/><stop stop-opacity="1" stop-color="rgb(44.554138%, 33.633423%, 94.963074%)" offset="0.300781"/><stop stop-opacity="1" stop-color="rgb(44.337463%, 33.821106%, 94.897461%)" offset="0.304688"/><stop stop-opacity="1" stop-color="rgb(44.120789%, 34.008789%, 94.831848%)" offset="0.308594"/><stop stop-opacity="1" stop-color="rgb(43.90564%, 34.196472%, 94.766235%)" offset="0.3125"/><stop stop-opacity="1" stop-color="rgb(43.688965%, 34.384155%, 94.700623%)" offset="0.316406"/><stop stop-opacity="1" stop-color="rgb(43.47229%, 34.571838%, 94.63501%)" offset="0.320313"/><stop stop-opacity="1" stop-color="rgb(43.255615%, 34.757996%, 94.569397%)" offset="0.324219"/><stop stop-opacity="1" stop-color="rgb(43.040466%, 34.945679%, 94.503784%)" offset="0.328125"/><stop stop-opacity="1" stop-color="rgb(42.823792%, 35.133362%, 94.438171%)" offset="0.332031"/><stop stop-opacity="1" stop-color="rgb(42.607117%, 35.321045%, 94.374084%)" offset="0.335937"/><stop stop-opacity="1" stop-color="rgb(42.390442%, 35.508728%, 94.308472%)" offset="0.339844"/><stop stop-opacity="1" stop-color="rgb(42.175293%, 35.696411%, 94.242859%)" offset="0.34375"/><stop stop-opacity="1" stop-color="rgb(41.958618%, 35.884094%, 94.177246%)" offset="0.347656"/><stop stop-opacity="1" stop-color="rgb(41.741943%, 36.071777%, 94.111633%)" offset="0.351562"/><stop stop-opacity="1" stop-color="rgb(41.525269%, 36.25946%, 94.046021%)" offset="0.355469"/><stop stop-opacity="1" stop-color="rgb(41.31012%, 36.447144%, 93.980408%)" offset="0.359375"/><stop stop-opacity="1" stop-color="rgb(41.093445%, 36.634827%, 93.914795%)" offset="0.363281"/><stop stop-opacity="1" stop-color="rgb(40.87677%, 36.82251%, 93.850708%)" offset="0.367188"/><stop stop-opacity="1" stop-color="rgb(40.660095%, 37.008667%, 93.785095%)" offset="0.371094"/><stop stop-opacity="1" stop-color="rgb(40.444946%, 37.19635%, 93.719482%)" offset="0.375"/><stop stop-opacity="1" stop-color="rgb(40.228271%, 37.384033%, 93.65387%)" offset="0.378906"/><stop stop-opacity="1" stop-color="rgb(40.011597%, 37.571716%, 93.588257%)" offset="0.382812"/><stop stop-opacity="1" stop-color="rgb(39.794922%, 37.759399%, 93.522644%)" offset="0.386719"/><stop stop-opacity="1" stop-color="rgb(39.579773%, 37.947083%, 93.457031%)" offset="0.390625"/><stop stop-opacity="1" stop-color="rgb(39.363098%, 38.134766%, 93.391418%)" offset="0.394531"/><stop stop-opacity="1" stop-color="rgb(39.146423%, 38.322449%, 93.325806%)" offset="0.398438"/><stop stop-opacity="1" stop-color="rgb(38.929749%, 38.510132%, 93.260193%)" offset="0.402344"/><stop stop-opacity="1" stop-color="rgb(38.7146%, 38.697815%, 93.196106%)" offset="0.40625"/><stop stop-opacity="1" stop-color="rgb(38.497925%, 38.885498%, 93.130493%)" offset="0.410156"/><stop stop-opacity="1" stop-color="rgb(38.28125%, 39.073181%, 93.06488%)" offset="0.414063"/><stop stop-opacity="1" stop-color="rgb(38.064575%, 39.259338%, 92.999268%)" offset="0.417969"/><stop stop-opacity="1" stop-color="rgb(37.849426%, 39.447021%, 92.933655%)" offset="0.421875"/><stop stop-opacity="1" stop-color="rgb(37.632751%, 39.634705%, 92.868042%)" offset="0.425781"/><stop stop-opacity="1" stop-color="rgb(37.416077%, 39.822388%, 92.802429%)" offset="0.429687"/><stop stop-opacity="1" stop-color="rgb(37.199402%, 40.010071%, 92.736816%)" offset="0.433594"/><stop stop-opacity="1" stop-color="rgb(36.984253%, 40.197754%, 92.672729%)" offset="0.4375"/><stop stop-opacity="1" stop-color="rgb(36.767578%, 40.385437%, 92.607117%)" offset="0.441406"/><stop stop-opacity="1" stop-color="rgb(36.550903%, 40.57312%, 92.541504%)" offset="0.445312"/><stop stop-opacity="1" stop-color="rgb(36.334229%, 40.760803%, 92.475891%)" offset="0.449219"/><stop stop-opacity="1" stop-color="rgb(36.11908%, 40.948486%, 92.410278%)" offset="0.453125"/><stop stop-opacity="1" stop-color="rgb(35.902405%, 41.136169%, 92.344666%)" offset="0.457031"/><stop stop-opacity="1" stop-color="rgb(35.68573%, 41.323853%, 92.279053%)" offset="0.460938"/><stop stop-opacity="1" stop-color="rgb(35.469055%, 41.51001%, 92.21344%)" offset="0.464844"/><stop stop-opacity="1" stop-color="rgb(35.253906%, 41.697693%, 92.147827%)" offset="0.46875"/><stop stop-opacity="1" stop-color="rgb(35.037231%, 41.885376%, 92.082214%)" offset="0.472656"/><stop stop-opacity="1" stop-color="rgb(34.820557%, 42.073059%, 92.018127%)" offset="0.476562"/><stop stop-opacity="1" stop-color="rgb(34.603882%, 42.260742%, 91.952515%)" offset="0.480469"/><stop stop-opacity="1" stop-color="rgb(34.388733%, 42.448425%, 91.886902%)" offset="0.484375"/><stop stop-opacity="1" stop-color="rgb(34.176636%, 42.633057%, 91.822815%)" offset="0.488281"/><stop stop-opacity="1" stop-color="rgb(33.964539%, 42.819214%, 91.758728%)" offset="0.492188"/><stop stop-opacity="1" stop-color="rgb(33.760071%, 42.999268%, 91.697693%)" offset="0.496094"/><stop stop-opacity="1" stop-color="rgb(33.555603%, 43.180847%, 91.638184%)" offset="0.5"/><stop stop-opacity="1" stop-color="rgb(33.351135%, 43.360901%, 91.577148%)" offset="0.503906"/><stop stop-opacity="1" stop-color="rgb(33.148193%, 43.54248%, 91.516113%)" offset="0.507812"/><stop stop-opacity="1" stop-color="rgb(32.943726%, 43.72406%, 91.455078%)" offset="0.511719"/><stop stop-opacity="1" stop-color="rgb(32.739258%, 43.90564%, 91.395569%)" offset="0.515625"/><stop stop-opacity="1" stop-color="rgb(32.53479%, 44.085693%, 91.334534%)" offset="0.519531"/><stop stop-opacity="1" stop-color="rgb(32.331848%, 44.267273%, 91.275024%)" offset="0.523438"/><stop stop-opacity="1" stop-color="rgb(32.12738%, 44.447327%, 91.213989%)" offset="0.527344"/><stop stop-opacity="1" stop-color="rgb(31.924438%, 44.628906%, 91.152954%)" offset="0.53125"/><stop stop-opacity="1" stop-color="rgb(31.719971%, 44.80896%, 91.091919%)" offset="0.535156"/><stop stop-opacity="1" stop-color="rgb(31.515503%, 44.99054%, 91.03241%)" offset="0.539063"/><stop stop-opacity="1" stop-color="rgb(31.311035%, 45.170593%, 90.971375%)" offset="0.542969"/><stop stop-opacity="1" stop-color="rgb(31.108093%, 45.352173%, 90.910339%)" offset="0.546875"/><stop stop-opacity="1" stop-color="rgb(30.903625%, 45.533752%, 90.849304%)" offset="0.550781"/><stop stop-opacity="1" stop-color="rgb(30.700684%, 45.715332%, 90.789795%)" offset="0.554688"/><stop stop-opacity="1" stop-color="rgb(30.496216%, 45.895386%, 90.72876%)" offset="0.558594"/><stop stop-opacity="1" stop-color="rgb(30.291748%, 46.076965%, 90.66925%)" offset="0.5625"/><stop stop-opacity="1" stop-color="rgb(30.08728%, 46.257019%, 90.608215%)" offset="0.566406"/><stop stop-opacity="1" stop-color="rgb(29.884338%, 46.438599%, 90.54718%)" offset="0.570312"/><stop stop-opacity="1" stop-color="rgb(29.679871%, 46.618652%, 90.486145%)" offset="0.574219"/><stop stop-opacity="1" stop-color="rgb(29.476929%, 46.800232%, 90.426636%)" offset="0.578125"/><stop stop-opacity="1" stop-color="rgb(29.272461%, 46.980286%, 90.365601%)" offset="0.582031"/><stop stop-opacity="1" stop-color="rgb(29.067993%, 47.161865%, 90.304565%)" offset="0.585938"/><stop stop-opacity="1" stop-color="rgb(28.863525%, 47.343445%, 90.24353%)" offset="0.589844"/><stop stop-opacity="1" stop-color="rgb(28.660583%, 47.525024%, 90.184021%)" offset="0.59375"/><stop stop-opacity="1" stop-color="rgb(28.456116%, 47.705078%, 90.122986%)" offset="0.597656"/><stop stop-opacity="1" stop-color="rgb(28.253174%, 47.886658%, 90.063477%)" offset="0.601562"/><stop stop-opacity="1" stop-color="rgb(28.048706%, 48.066711%, 90.002441%)" offset="0.605469"/><stop stop-opacity="1" stop-color="rgb(27.844238%, 48.248291%, 89.941406%)" offset="0.609375"/><stop stop-opacity="1" stop-color="rgb(27.639771%, 48.428345%, 89.880371%)" offset="0.613281"/><stop stop-opacity="1" stop-color="rgb(27.436829%, 48.609924%, 89.820862%)" offset="0.617188"/><stop stop-opacity="1" stop-color="rgb(27.232361%, 48.789978%, 89.759827%)" offset="0.621094"/><stop stop-opacity="1" stop-color="rgb(27.029419%, 48.971558%, 89.698792%)" offset="0.625"/><stop stop-opacity="1" stop-color="rgb(26.824951%, 49.153137%, 89.637756%)" offset="0.628906"/><stop stop-opacity="1" stop-color="rgb(26.620483%, 49.334717%, 89.578247%)" offset="0.632813"/><stop stop-opacity="1" stop-color="rgb(26.416016%, 49.514771%, 89.517212%)" offset="0.636719"/><stop stop-opacity="1" stop-color="rgb(26.213074%, 49.69635%, 89.457703%)" offset="0.640625"/><stop stop-opacity="1" stop-color="rgb(26.008606%, 49.876404%, 89.396667%)" offset="0.644531"/><stop stop-opacity="1" stop-color="rgb(25.805664%, 50.057983%, 89.335632%)" offset="0.648438"/><stop stop-opacity="1" stop-color="rgb(25.601196%, 50.238037%, 89.274597%)" offset="0.652344"/><stop stop-opacity="1" stop-color="rgb(25.396729%, 50.419617%, 89.215088%)" offset="0.65625"/><stop stop-opacity="1" stop-color="rgb(25.192261%, 50.59967%, 89.154053%)" offset="0.660156"/><stop stop-opacity="1" stop-color="rgb(24.989319%, 50.78125%, 89.093018%)" offset="0.664062"/><stop stop-opacity="1" stop-color="rgb(24.784851%, 50.96283%, 89.031982%)" offset="0.667969"/><stop stop-opacity="1" stop-color="rgb(24.580383%, 51.144409%, 88.972473%)" offset="0.671875"/><stop stop-opacity="1" stop-color="rgb(24.375916%, 51.324463%, 88.911438%)" offset="0.675781"/><stop stop-opacity="1" stop-color="rgb(24.172974%, 51.506042%, 88.851929%)" offset="0.679688"/><stop stop-opacity="1" stop-color="rgb(23.968506%, 51.686096%, 88.790894%)" offset="0.683594"/><stop stop-opacity="1" stop-color="rgb(23.765564%, 51.867676%, 88.729858%)" offset="0.6875"/><stop stop-opacity="1" stop-color="rgb(23.561096%, 52.047729%, 88.668823%)" offset="0.691406"/><stop stop-opacity="1" stop-color="rgb(23.356628%, 52.229309%, 88.609314%)" offset="0.695312"/><stop stop-opacity="1" stop-color="rgb(23.152161%, 52.409363%, 88.548279%)" offset="0.699219"/><stop stop-opacity="1" stop-color="rgb(22.949219%, 52.590942%, 88.487244%)" offset="0.703125"/><stop stop-opacity="1" stop-color="rgb(22.744751%, 52.772522%, 88.426208%)" offset="0.707031"/><stop stop-opacity="1" stop-color="rgb(22.541809%, 52.954102%, 88.366699%)" offset="0.710938"/><stop stop-opacity="1" stop-color="rgb(22.337341%, 53.134155%, 88.305664%)" offset="0.714844"/><stop stop-opacity="1" stop-color="rgb(22.132874%, 53.315735%, 88.246155%)" offset="0.71875"/><stop stop-opacity="1" stop-color="rgb(21.928406%, 53.495789%, 88.18512%)" offset="0.722656"/><stop stop-opacity="1" stop-color="rgb(21.725464%, 53.677368%, 88.124084%)" offset="0.726563"/><stop stop-opacity="1" stop-color="rgb(21.520996%, 53.857422%, 88.063049%)" offset="0.730469"/><stop stop-opacity="1" stop-color="rgb(21.318054%, 54.039001%, 88.00354%)" offset="0.734375"/><stop stop-opacity="1" stop-color="rgb(21.113586%, 54.219055%, 87.942505%)" offset="0.738281"/><stop stop-opacity="1" stop-color="rgb(20.909119%, 54.400635%, 87.88147%)" offset="0.742188"/><stop stop-opacity="1" stop-color="rgb(20.704651%, 54.582214%, 87.820435%)" offset="0.746094"/><stop stop-opacity="1" stop-color="rgb(20.501709%, 54.763794%, 87.760925%)" offset="0.75"/><stop stop-opacity="1" stop-color="rgb(20.297241%, 54.943848%, 87.69989%)" offset="0.753906"/><stop stop-opacity="1" stop-color="rgb(20.094299%, 55.125427%, 87.640381%)" offset="0.757812"/><stop stop-opacity="1" stop-color="rgb(19.889832%, 55.305481%, 87.579346%)" offset="0.761719"/><stop stop-opacity="1" stop-color="rgb(19.685364%, 55.487061%, 87.518311%)" offset="0.765625"/><stop stop-opacity="1" stop-color="rgb(19.480896%, 55.667114%, 87.457275%)" offset="0.769531"/><stop stop-opacity="1" stop-color="rgb(19.277954%, 55.848694%, 87.397766%)" offset="0.773437"/><stop stop-opacity="1" stop-color="rgb(19.073486%, 56.028748%, 87.336731%)" offset="0.777344"/><stop stop-opacity="1" stop-color="rgb(18.870544%, 56.210327%, 87.275696%)" offset="0.78125"/><stop stop-opacity="1" stop-color="rgb(18.666077%, 56.391907%, 87.214661%)" offset="0.785156"/><stop stop-opacity="1" stop-color="rgb(18.461609%, 56.573486%, 87.155151%)" offset="0.789062"/><stop stop-opacity="1" stop-color="rgb(18.257141%, 56.75354%, 87.094116%)" offset="0.792969"/><stop stop-opacity="1" stop-color="rgb(18.054199%, 56.93512%, 87.034607%)" offset="0.796875"/><stop stop-opacity="1" stop-color="rgb(17.849731%, 57.115173%, 86.973572%)" offset="0.800781"/><stop stop-opacity="1" stop-color="rgb(17.64679%, 57.296753%, 86.912537%)" offset="0.804688"/><stop stop-opacity="1" stop-color="rgb(17.442322%, 57.476807%, 86.851501%)" offset="0.808594"/><stop stop-opacity="1" stop-color="rgb(17.237854%, 57.658386%, 86.791992%)" offset="0.8125"/><stop stop-opacity="1" stop-color="rgb(17.033386%, 57.83844%, 86.730957%)" offset="0.816406"/><stop stop-opacity="1" stop-color="rgb(16.830444%, 58.02002%, 86.669922%)" offset="0.820312"/><stop stop-opacity="1" stop-color="rgb(16.625977%, 58.201599%, 86.608887%)" offset="0.824219"/><stop stop-opacity="1" stop-color="rgb(16.421509%, 58.383179%, 86.549377%)" offset="0.828125"/><stop stop-opacity="1" stop-color="rgb(16.217041%, 58.563232%, 86.488342%)" offset="0.832031"/><stop stop-opacity="1" stop-color="rgb(16.014099%, 58.744812%, 86.428833%)" offset="0.835938"/><stop stop-opacity="1" stop-color="rgb(15.809631%, 58.924866%, 86.367798%)" offset="0.839844"/><stop stop-opacity="1" stop-color="rgb(15.606689%, 59.106445%, 86.306763%)" offset="0.84375"/><stop stop-opacity="1" stop-color="rgb(15.402222%, 59.286499%, 86.245728%)" offset="0.847656"/><stop stop-opacity="1" stop-color="rgb(15.197754%, 59.468079%, 86.186218%)" offset="0.851562"/><stop stop-opacity="1" stop-color="rgb(14.993286%, 59.648132%, 86.125183%)" offset="0.855469"/><stop stop-opacity="1" stop-color="rgb(14.790344%, 59.829712%, 86.064148%)" offset="0.859375"/><stop stop-opacity="1" stop-color="rgb(14.585876%, 60.011292%, 86.003113%)" offset="0.863281"/><stop stop-opacity="1" stop-color="rgb(14.382935%, 60.192871%, 85.943604%)" offset="0.867187"/><stop stop-opacity="1" stop-color="rgb(14.178467%, 60.372925%, 85.882568%)" offset="0.871094"/><stop stop-opacity="1" stop-color="rgb(13.973999%, 60.554504%, 85.823059%)" offset="0.875"/><stop stop-opacity="1" stop-color="rgb(13.769531%, 60.734558%, 85.762024%)" offset="0.878906"/><stop stop-opacity="1" stop-color="rgb(13.566589%, 60.916138%, 85.700989%)" offset="0.882812"/><stop stop-opacity="1" stop-color="rgb(13.362122%, 61.096191%, 85.639954%)" offset="0.886719"/><stop stop-opacity="1" stop-color="rgb(13.15918%, 61.277771%, 85.580444%)" offset="0.890625"/><stop stop-opacity="1" stop-color="rgb(12.954712%, 61.457825%, 85.519409%)" offset="0.894531"/><stop stop-opacity="1" stop-color="rgb(12.750244%, 61.639404%, 85.458374%)" offset="0.898438"/><stop stop-opacity="1" stop-color="rgb(12.545776%, 61.820984%, 85.397339%)" offset="0.902344"/><stop stop-opacity="1" stop-color="rgb(12.342834%, 62.002563%, 85.33783%)" offset="0.90625"/><stop stop-opacity="1" stop-color="rgb(12.138367%, 62.182617%, 85.276794%)" offset="0.910156"/><stop stop-opacity="1" stop-color="rgb(11.935425%, 62.364197%, 85.217285%)" offset="0.914062"/><stop stop-opacity="1" stop-color="rgb(11.730957%, 62.54425%, 85.15625%)" offset="0.917969"/><stop stop-opacity="1" stop-color="rgb(11.526489%, 62.72583%, 85.095215%)" offset="0.921875"/><stop stop-opacity="1" stop-color="rgb(11.322021%, 62.905884%, 85.03418%)" offset="0.925781"/><stop stop-opacity="1" stop-color="rgb(11.11908%, 63.087463%, 84.97467%)" offset="0.929688"/><stop stop-opacity="1" stop-color="rgb(10.914612%, 63.267517%, 84.913635%)" offset="0.933594"/><stop stop-opacity="1" stop-color="rgb(10.71167%, 63.449097%, 84.8526%)" offset="0.9375"/><stop stop-opacity="1" stop-color="rgb(10.507202%, 63.630676%, 84.791565%)" offset="0.941406"/><stop stop-opacity="1" stop-color="rgb(10.302734%, 63.812256%, 84.732056%)" offset="0.945312"/><stop stop-opacity="1" stop-color="rgb(10.098267%, 63.99231%, 84.671021%)" offset="0.949219"/><stop stop-opacity="1" stop-color="rgb(9.895325%, 64.173889%, 84.611511%)" offset="0.953125"/><stop stop-opacity="1" stop-color="rgb(9.690857%, 64.353943%, 84.550476%)" offset="0.957031"/><stop stop-opacity="1" stop-color="rgb(9.487915%, 64.535522%, 84.489441%)" offset="0.960937"/><stop stop-opacity="1" stop-color="rgb(9.283447%, 64.715576%, 84.428406%)" offset="0.964844"/><stop stop-opacity="1" stop-color="rgb(9.078979%, 64.897156%, 84.368896%)" offset="0.96875"/><stop stop-opacity="1" stop-color="rgb(8.874512%, 65.077209%, 84.307861%)" offset="0.972656"/><stop stop-opacity="1" stop-color="rgb(8.67157%, 65.258789%, 84.246826%)" offset="0.976562"/><stop stop-opacity="1" stop-color="rgb(8.467102%, 65.440369%, 84.185791%)" offset="0.980469"/><stop stop-opacity="1" stop-color="rgb(8.262634%, 65.621948%, 84.126282%)" offset="0.984375"/><stop stop-opacity="1" stop-color="rgb(8.058167%, 65.802002%, 84.065247%)" offset="0.988281"/><stop stop-opacity="1" stop-color="rgb(7.855225%, 65.983582%, 84.005737%)" offset="0.992188"/><stop stop-opacity="1" stop-color="rgb(7.676697%, 66.140747%, 83.952332%)" offset="1"/></linearGradient></defs><g clip-path="url(#21eaa205f7)"><g clip-path="url(#718a21dd4a)"><path fill="url(#68efea4676)" d="M 0.328125 0.636719 L 0.328125 37.007812 L 36.914062 37.007812 L 36.914062 0.636719 Z M 0.328125 0.636719 " fill-rule="nonzero"/></g></g></svg>